<?xml version="1.0" standalone="no"?>
<!DOCTYPE svg PUBLIC "-//W3C//DTD SVG 20010904//EN"
 "http://www.w3.org/TR/2001/REC-SVG-20010904/DTD/svg10.dtd">
<svg version="1.0" xmlns="http://www.w3.org/2000/svg"
 width="920.000000pt" height="512.000000pt" viewBox="0 0 920.000000 512.000000"
 preserveAspectRatio="xMidYMid meet">

<g transform="translate(0.000000,512.000000) scale(0.100000,-0.100000)"
fill="#000000" stroke="none">
<path d="M2955 4471 c-101 -26 -196 -108 -242 -206 -24 -51 -28 -73 -28 -145
1 -156 -41 -106 729 -877 l681 -683 -681 -682 c-773 -775 -729 -722 -728 -883
0 -81 3 -96 31 -150 40 -77 102 -136 178 -172 51 -24 73 -28 145 -28 156 1
106 -41 878 729 l682 681 683 -681 c771 -769 720 -727 877 -728 73 -1 94 3
146 27 77 36 145 104 181 182 23 51 28 73 27 145 0 156 42 106 -728 878 l-681
682 681 683 c769 771 727 720 728 877 1 73 -3 94 -27 145 -36 76 -95 138 -172
178 -54 28 -69 31 -150 31 -161 1 -108 45 -882 -728 l-683 -681 -682 681
c-609 607 -689 683 -738 704 -59 25 -172 35 -225 21z"/>
</g>
</svg>
